<svg width="100" height="100" viewBox="0 0 100 100" fill="none" xmlns="http://www.w3.org/2000/svg">
<g clip-path="url(#clip0_31_41)">
<path d="M87.5 0H12.5C5.60625 0 0 5.60625 0 12.5V87.5C0 94.3938 5.60625 100 12.5 100H87.5C94.3938 100 100 94.3938 100 87.5V12.5C100 5.60625 94.3938 0 87.5 0Z" fill="#1976D2"/>
<path fill-rule="evenodd" clip-rule="evenodd" d="M84.375 50H68.75V37.5C68.75 34.05 71.55 34.375 75 34.375H81.25V18.75H68.75C63.7772 18.75 59.0081 20.7254 55.4917 24.2417C51.9754 27.7581 50 32.5272 50 37.5V50H37.5V65.625H50V100H68.75V65.625H78.125L84.375 50Z" fill="#FAFAFA"/>
</g>
<defs>
<clipPath id="clip0_31_41">
<rect width="100" height="100" fill="white"/>
</clipPath>
</defs>
</svg>
