<svg width="102" height="102" viewBox="0 0 102 102" fill="none" xmlns="http://www.w3.org/2000/svg">
<g clip-path="url(#clip0_31_27)">
<path d="M25.865 101.639C21.9197 101.595 18.0115 100.871 14.312 99.5C11.6104 98.5014 9.16621 96.9116 7.158 94.847C5.08777 92.8428 3.49568 90.3979 2.5 87.694C1.12975 83.9946 0.407182 80.0868 0.364 76.142C0.061 69.584 0 67.617 0 51C0 34.383 0.067 32.423 0.361 25.86C0.409423 21.9168 1.13288 18.011 2.5 14.312C3.50053 11.61 5.09036 9.16479 7.154 7.154C9.15973 5.08563 11.6051 3.49502 14.309 2.5C18.0085 1.12862 21.9167 0.405028 25.862 0.361C32.422 0.061 34.392 0 51 0C67.608 0 69.577 0.067 76.14 0.361C80.0842 0.40908 83.9911 1.13255 87.691 2.5C90.3937 3.49634 92.8384 5.08639 94.845 7.153C96.9122 9.16024 98.5029 11.6056 99.5 14.309C100.872 18.0085 101.596 21.9167 101.64 25.862C101.94 32.425 102.001 34.39 102.001 51.002C102.001 67.614 101.94 69.579 101.64 76.142C101.592 80.0867 100.869 83.994 99.5 87.694C98.4648 90.3772 96.8792 92.8139 94.8454 94.8472C92.8115 96.8805 90.3744 98.4655 87.691 99.5C83.9915 100.872 80.0833 101.596 76.138 101.64C69.581 101.94 67.61 102.001 50.998 102.001C34.386 102.001 32.421 101.943 25.864 101.64" fill="url(#paint0_radial_31_27)"/>
<path d="M25.865 101.639C21.9197 101.595 18.0115 100.871 14.312 99.5C11.6104 98.5014 9.16621 96.9116 7.158 94.847C5.08777 92.8428 3.49568 90.3979 2.5 87.694C1.12975 83.9946 0.407182 80.0868 0.364 76.142C0.061 69.584 0 67.617 0 51C0 34.383 0.067 32.423 0.361 25.86C0.409423 21.9168 1.13288 18.011 2.5 14.312C3.50053 11.61 5.09036 9.16479 7.154 7.154C9.15973 5.08563 11.6051 3.49502 14.309 2.5C18.0085 1.12862 21.9167 0.405028 25.862 0.361C32.422 0.061 34.392 0 51 0C67.608 0 69.577 0.067 76.14 0.361C80.0842 0.40908 83.9911 1.13255 87.691 2.5C90.3937 3.49634 92.8384 5.08639 94.845 7.153C96.9122 9.16024 98.5029 11.6056 99.5 14.309C100.872 18.0085 101.596 21.9167 101.64 25.862C101.94 32.425 102.001 34.39 102.001 51.002C102.001 67.614 101.94 69.579 101.64 76.142C101.592 80.0867 100.869 83.994 99.5 87.694C98.4648 90.3772 96.8792 92.8139 94.8454 94.8472C92.8115 96.8805 90.3744 98.4655 87.691 99.5C83.9915 100.872 80.0833 101.596 76.138 101.64C69.581 101.94 67.61 102.001 50.998 102.001C34.386 102.001 32.421 101.943 25.864 101.64" fill="url(#paint1_radial_31_27)"/>
<path d="M38.4769 51.217C38.4771 48.7188 39.2181 46.2767 40.6062 44.1997C41.9944 42.1226 43.9672 40.5038 46.2754 39.548C48.5835 38.5922 51.1233 38.3423 53.5734 38.83C56.0236 39.3176 58.2741 40.5209 60.0404 42.2876C61.8067 44.0543 63.0094 46.3051 63.4965 48.7554C63.9836 51.2057 63.7331 53.7454 62.7767 56.0533C61.8204 58.3612 60.2011 60.3337 58.1237 61.7213C56.0463 63.109 53.6041 63.8494 51.1059 63.849C47.7561 63.8485 44.5437 62.5173 42.1754 60.1484C39.807 57.7795 38.4766 54.5668 38.4769 51.217ZM31.6479 51.217C31.6479 55.0654 32.7891 58.8274 34.9272 62.0273C37.0652 65.2271 40.1042 67.7211 43.6596 69.1939C47.2151 70.6666 51.1275 71.0519 54.9019 70.3011C58.6764 69.5503 62.1435 67.6971 64.8648 64.9759C67.586 62.2546 69.4392 58.7876 70.19 55.0131C70.9408 51.2386 70.5555 47.3262 69.0827 43.7707C67.61 40.2153 65.116 37.1763 61.9162 35.0383C58.7163 32.9002 54.9543 31.759 51.1059 31.759C48.5506 31.7589 46.0203 32.2621 43.6595 33.2399C41.2987 34.2177 39.1536 35.6509 37.3467 37.4578C35.5398 39.2647 34.1066 41.4098 33.1288 43.7706C32.151 46.1314 31.6478 48.6617 31.6479 51.217ZM66.7869 30.988C66.7865 31.8873 67.0528 32.7665 67.5521 33.5145C68.0514 34.2625 68.7613 34.8456 69.592 35.1901C70.4227 35.5346 71.3369 35.6251 72.219 35.45C73.1011 35.275 73.9115 34.8422 74.5477 34.2066C75.1839 33.571 75.6173 32.761 75.7931 31.879C75.969 30.9971 75.8793 30.0828 75.5355 29.2518C75.1917 28.4208 74.6093 27.7104 73.8617 27.2104C73.1142 26.7105 72.2352 26.4434 71.3359 26.443C70.1304 26.4435 68.9745 26.9225 68.1219 27.7747C67.2694 28.6269 66.7899 29.7826 66.7889 30.988M35.7989 82.062C33.396 82.0356 31.0156 81.5958 28.7619 80.762C27.1275 80.132 25.643 79.1668 24.4042 77.9285C23.1654 76.6902 22.1995 75.2062 21.5689 73.572C20.7347 71.3184 20.2949 68.9379 20.2689 66.535C20.0849 62.541 20.0489 61.341 20.0489 51.222C20.0489 41.103 20.0889 39.906 20.2689 35.908C20.298 33.5054 20.7377 31.1254 21.5689 28.871C22.1988 27.2361 23.1643 25.7513 24.4033 24.5124C25.6422 23.2735 27.1269 22.3079 28.7619 21.678C31.0155 20.8438 33.396 20.404 35.7989 20.378C39.7929 20.194 40.9929 20.158 51.1079 20.158C61.2229 20.158 62.4239 20.197 66.4219 20.379C68.8245 20.4082 71.2044 20.8478 73.4589 21.679C75.0938 22.309 76.5785 23.2745 77.8174 24.5134C79.0563 25.7523 80.0219 27.2371 80.6519 28.872C81.4861 31.1256 81.9258 33.5061 81.9519 35.909C82.1359 39.909 82.1719 41.103 82.1719 51.223C82.1719 61.343 82.1349 62.539 81.9519 66.537C81.9239 68.9397 81.4842 71.3199 80.6519 73.574C80.0212 75.2081 79.0554 76.6922 77.8166 77.9305C76.5777 79.1688 75.0933 80.134 73.4589 80.764C71.2053 81.5982 68.8248 82.038 66.4219 82.064C62.4279 82.248 61.2279 82.284 51.1079 82.284C40.9879 82.284 39.7919 82.247 35.7989 82.064M35.4849 13.555C32.3407 13.6168 29.2299 14.2119 26.2849 15.315C23.7674 16.2884 21.4811 17.7771 19.5725 19.6856C17.6639 21.5942 16.1752 23.8805 15.2019 26.398C14.099 29.343 13.5039 32.4539 13.4419 35.598C13.2549 39.638 13.2129 40.93 13.2129 51.221C13.2129 61.512 13.2559 62.803 13.4419 66.844C13.5038 69.9882 14.0989 73.099 15.2019 76.044C16.1753 78.5615 17.664 80.8477 19.5726 82.7563C21.4811 84.6649 23.7674 86.1536 26.2849 87.127C29.23 88.2296 32.3408 88.8247 35.4849 88.887C39.5269 89.071 40.8169 89.116 51.1079 89.116C61.3989 89.116 62.6899 89.073 66.7309 88.887C69.875 88.8249 72.9858 88.2298 75.9309 87.127C78.4483 86.1536 80.7346 84.6649 82.6432 82.7563C84.5517 80.8477 86.0405 78.5615 87.0139 76.044C88.1183 73.0994 88.7134 69.9883 88.7739 66.844C88.9579 62.801 88.9999 61.512 88.9999 51.221C88.9999 40.93 88.9569 39.639 88.7739 35.598C88.7121 32.4538 88.1169 29.343 87.0139 26.398C86.0405 23.881 84.5522 21.595 82.6442 19.6865C80.7362 17.778 78.4507 16.289 75.9339 15.315C72.9891 14.2112 69.8781 13.6161 66.7339 13.555C62.6929 13.37 61.4019 13.326 51.1129 13.326C40.8239 13.326 39.5299 13.369 35.4869 13.555" fill="white"/>
</g>
<defs>
<radialGradient id="paint0_radial_31_27" cx="0" cy="0" r="1" gradientUnits="userSpaceOnUse" gradientTransform="translate(6.601 99.766) scale(129.502)">
<stop offset="0.09" stop-color="#FA8F21"/>
<stop offset="0.78" stop-color="#D82D7E"/>
</radialGradient>
<radialGradient id="paint1_radial_31_27" cx="0" cy="0" r="1" gradientUnits="userSpaceOnUse" gradientTransform="translate(70.652 96.49) scale(113.963)">
<stop offset="0.64" stop-color="#8C3AAA" stop-opacity="0"/>
<stop offset="1" stop-color="#8C3AAA"/>
</radialGradient>
<clipPath id="clip0_31_27">
<rect width="102" height="102" fill="white"/>
</clipPath>
</defs>
</svg>
