<svg width="102" height="102" viewBox="0 0 102 102" fill="none" xmlns="http://www.w3.org/2000/svg">
<g clip-path="url(#clip0_31_44)">
<path d="M74.071 0H27.929C12.5042 0 0 12.5042 0 27.929V74.071C0 89.4958 12.5042 102 27.929 102H74.071C89.4958 102 102 89.4958 102 74.071V27.929C102 12.5042 89.4958 0 74.071 0Z" fill="url(#paint0_radial_31_44)"/>
<path d="M49.551 64.6516L48.1018 66.0678C46.4551 67.5828 44.973 69.1143 43.3756 70.6129C42.7231 71.2793 41.8953 71.7475 40.9878 71.9632H40.7902H40.5432C40.5351 71.8866 40.5351 71.8093 40.5432 71.7326C40.6914 69.7071 40.8561 67.6652 41.0208 65.6232C41.1525 63.8282 41.3007 62.0333 41.4325 60.2218C41.4325 59.7113 41.5148 59.1844 41.5642 58.6739C41.5916 58.5584 41.6551 58.4546 41.7454 58.3775L49.0899 51.6587L63.9107 38.1553L65.8868 36.3439C66.0206 36.2188 66.142 36.0809 66.2491 35.9322C66.4467 35.6522 66.3479 35.4217 66.0185 35.3394C65.8477 35.2863 65.668 35.2677 65.4899 35.2846C65.3118 35.3016 65.1388 35.3538 64.9811 35.4382C64.7119 35.5722 64.4532 35.7264 64.2071 35.8993L35.9817 53.6513C35.4548 53.9806 34.9443 54.3264 34.335 54.6393C34.1908 54.6883 34.0345 54.6883 33.8903 54.6393L21.2433 50.8024C20.8154 50.6862 20.397 50.5376 19.9917 50.3578C19.7964 50.2898 19.6207 50.1751 19.4799 50.0236C19.3391 49.8721 19.2375 49.6886 19.1839 49.4888C19.1304 49.2891 19.1264 49.0793 19.1725 48.8777C19.2186 48.6761 19.3133 48.4889 19.4483 48.3323C19.7778 47.8414 20.2487 47.4624 20.7986 47.2454C22.0941 46.6965 23.395 46.1476 24.7014 45.5986L46.0105 37.3649L72.3585 27.2044C72.7087 27.0655 73.0732 26.9661 73.4454 26.908C74.079 26.8374 74.7153 27.0162 75.2194 27.4066C75.7235 27.7969 76.0559 28.3682 76.1461 28.9994C76.294 29.7053 76.294 30.4342 76.1461 31.1401C75.0592 36.2615 73.9559 41.3829 72.8526 46.5208L69.1638 63.5812C68.571 66.3807 67.9946 69.1637 67.3689 71.9467C67.2508 72.5166 67.0627 73.0697 66.809 73.5935C66.7102 73.8618 66.559 74.1079 66.3643 74.3173C66.1695 74.5267 65.9351 74.6953 65.6746 74.8133C65.4141 74.9313 65.1327 74.9963 64.8469 75.0046C64.561 75.0129 64.2764 74.9642 64.0095 74.8615C63.3215 74.6821 62.6735 74.3749 62.0992 73.9558C57.9824 70.8763 53.8655 67.8134 49.6992 64.7339L49.551 64.6516Z" fill="url(#paint1_linear_31_44)"/>
</g>
<defs>
<radialGradient id="paint0_radial_31_44" cx="0" cy="0" r="1" gradientUnits="userSpaceOnUse" gradientTransform="translate(49.0733 -43.2767) scale(118.583)">
<stop stop-color="#6FCEE7"/>
<stop offset="0.2" stop-color="#58B7DB"/>
<stop offset="0.42" stop-color="#48A7D3"/>
<stop offset="0.67" stop-color="#3F9ECE"/>
<stop offset="1" stop-color="#3C9BCC"/>
</radialGradient>
<linearGradient id="paint1_linear_31_44" x1="47.7066" y1="75.0262" x2="47.7066" y2="26.9574" gradientUnits="userSpaceOnUse">
<stop offset="0.16" stop-color="#E1F4FD"/>
<stop offset="0.4" stop-color="#F2FAFE"/>
<stop offset="0.67" stop-color="#FCFEFF"/>
<stop offset="1" stop-color="white"/>
</linearGradient>
<clipPath id="clip0_31_44">
<rect width="102" height="102" fill="white"/>
</clipPath>
</defs>
</svg>
