<svg width="141" height="100" viewBox="0 0 141 100" fill="none" xmlns="http://www.w3.org/2000/svg">
<g clip-path="url(#clip0_31_23)">
<path d="M93.9233 48.5433C80.9952 41.5675 68.6165 35.1543 55.9631 28.4584V68.5146C69.2784 61.2059 83.313 54.5127 93.9782 48.5433H93.9233Z" fill="white"/>
<path d="M93.9233 48.5433C80.9952 41.5675 55.9631 28.4584 55.9631 28.4584L89.3375 51.108C89.3375 51.108 83.258 54.5128 93.9233 48.5433Z" fill="#E8E0E0"/>
<path d="M58.3959 99.8701C31.5431 99.3709 22.3716 98.9218 16.7342 97.7491C12.9202 96.9699 9.60574 95.2398 7.17552 92.7305C5.29727 90.8314 3.80356 87.9338 2.64469 83.9137C1.65062 80.5644 1.26346 77.7778 0.711495 70.971C-0.133459 55.6089 -0.334887 43.0493 0.711495 29.0158C1.57476 21.266 1.99331 12.0662 7.72749 6.69895C10.435 4.18702 13.5846 2.57051 17.1214 1.90225C22.6463 0.843067 46.1847 0.00575638 70.5523 0.00575638C94.865 0.00575638 118.456 0.843067 123.986 1.90225C128.404 2.73956 132.548 5.24884 134.981 8.4845C140.213 16.7942 140.304 27.1272 140.835 35.2097C141.055 39.0608 141.055 60.9286 140.835 64.7797C140.009 77.5533 139.344 82.0727 137.466 86.7584C136.304 89.7167 135.313 91.2778 133.597 93.0079C130.905 95.6702 127.474 97.4411 123.761 98.0846C100.523 99.849 80.7911 100.232 58.3959 99.8701ZM93.9808 48.5433C81.0527 41.5675 68.674 35.0988 56.0206 28.403V68.4618C69.3359 61.1531 83.3731 54.4573 94.0357 48.4878L93.9808 48.5433Z" fill="#CD201F"/>
</g>
<defs>
<clipPath id="clip0_31_23">
<rect width="141" height="100" fill="white"/>
</clipPath>
</defs>
</svg>
